<svg xmlns="http://www.w3.org/2000/svg"
     width="400"
     height="225"
     viewBox="0 0 400 225">
    <metadata>
        <?xpacket begin="﻿" id="W5M0MpCehiHzreSzNTczkc9d"?>
        <x:xmpmeta
                xmlns:x="adobe:ns:meta/"
                x:xmptk="Adobe XMP Core 5.6-c142 79.160924, 2017/07/13-01:06:39">
            <rdf:RDF xmlns:rdf="http://www.w3.org/1999/02/22-rdf-syntax-ns#">
                <rdf:Description rdf:about=""/>
            </rdf:RDF>
        </x:xmpmeta>
        <?xpacket end="w"?>
    </metadata>
    <defs>
        <style>
            .hyf_logo {
            fill-rule: evenodd;
            fill:#293a7d;
            }
        </style>
    </defs>
    <path class="hyf_logo"
          d="M389.2,197.106v12.927H346.936V160.141h41.357v12.927H364.52v6.2h19.169V191.21H364.52v5.9H389.2Zm-65.052,12.927-8.83-16.555h-4.83v16.555H293.28V160.141H320.3q9.961,0,15.056,4.2t5.094,12.51q0,10.962-8.981,14.741l11.773,18.445H324.146Zm-2.679-36.285q-1.4-1.057-4.717-1.058h-6.264v9.222h6.264q3.321,0,4.717-1.02A5.268,5.268,0,0,0,321.467,173.748Zm-59.129,37.041q-24.075,0-24.074-22.225V160.141h17.66v29.784a8.667,8.667,0,0,0,1.622,5.707,5.91,5.91,0,0,0,4.792,1.928,6.027,6.027,0,0,0,4.83-1.928,8.535,8.535,0,0,0,1.661-5.707V160.141h17.584v28.423Q286.413,210.79,262.338,210.789Zm-44.223-.756H200.531V173.068H184.909V160.141h48.752v12.927H218.115v36.965Zm-61.883.756q-24.075,0-24.075-22.225V160.141h17.66v29.784a8.667,8.667,0,0,0,1.622,5.707,5.913,5.913,0,0,0,4.793,1.928,6.028,6.028,0,0,0,4.83-1.928,8.535,8.535,0,0,0,1.66-5.707V160.141h17.584v28.423Q180.306,210.79,156.232,210.789Zm-52.149-30.767h19.169v12.927H104.083v17.084H86.5V160.141H127.78v12.927h-23.7v6.954ZM218.4,64.307H198.772l-9.249-18.578-4.061,5.566V64.307H167.941V14.664h17.521v18.5l12.934-18.5h18.65l-15.19,19.707ZM141.02,51.9q3.534,0,5.114-1.58a8.752,8.752,0,0,0,2.03-5.19l15.491,3.986Q159.821,65.06,140.72,65.059a28.449,28.449,0,0,1-13.5-3.009,20.572,20.572,0,0,1-8.723-8.763,29.148,29.148,0,0,1-3.045-13.8,29.151,29.151,0,0,1,3.045-13.8,20.579,20.579,0,0,1,8.723-8.763,28.464,28.464,0,0,1,13.5-3.009,28.287,28.287,0,0,1,14.889,3.723,16.249,16.249,0,0,1,7.67,11.32l-15.04,5.867q-0.6-4.587-2.18-6.168a6.664,6.664,0,0,0-4.888-1.579,6.53,6.53,0,0,0-5.866,3.009q-1.956,3.009-1.955,9.4t1.88,9.4A6.348,6.348,0,0,0,141.02,51.9ZM98.081,64.307L95.825,54.83H82.439l-2.331,9.477H62.662L78.755,14.664H99.81l16.168,49.643h-17.9Zm-8.8-36.931H89.057L87.1,35.8l-2.03,8.123h8.2ZM42.133,45.8H28.522v18.5H11V14.664H28.522V32.942H42.133V14.664H59.654V64.307H42.133V45.8Zm43.426,79.288v13.225s-26.141,1.215-24.808-26.75c0.232-26.061,24.709-24.345,24.709-24.345v12.824s-7.234-.588-7,12.523S84.058,124.792,85.559,125.092Zm95.833-25.547V86.321s24.632-2.274,24.909,26.049c-0.223,26.619-24.809,25.246-24.809,25.246V124.691s7.626,0.03,7-13.424S181.391,99.545,181.391,99.545ZM316.1,136.967H297l-8.835-16.554h-4.833v16.554H266.111V87.078h27.033q9.969,0,15.065,4.2t5.1,12.51q0,10.962-8.986,14.74Zm-21.785-36.283q-1.4-1.058-4.72-1.058h-6.267v9.222H289.6q3.322,0,4.72-1.021A5.264,5.264,0,0,0,294.315,100.684Zm-58.71,37.039q-24.088,0-24.088-22.223V87.078h17.67V116.86a8.662,8.662,0,0,0,1.623,5.707,5.916,5.916,0,0,0,4.795,1.928,6.032,6.032,0,0,0,4.833-1.928,8.53,8.53,0,0,0,1.661-5.707V87.078h17.594V115.5Q259.693,137.723,235.605,137.723Zm-190.366-.756H27.645v-17.31L10.2,87.078H27.72l5.286,11.414,3.549,9.071L40.1,98.492,45.39,87.078H62.682L45.239,119.657v17.31Z"/>
</svg>